<svg width="22" height="18" viewBox="0 0 22 18" fill="none" xmlns="http://www.w3.org/2000/svg">
<path fill-rule="evenodd" clip-rule="evenodd" d="M0.75 9C0.75 8.30964 1.30964 7.75 2 7.75H14C14.6904 7.75 15.25 8.30964 15.25 9C15.25 9.69036 14.6904 10.25 14 10.25H2C1.30964 10.25 0.75 9.69036 0.75 9Z" fill="white"/>
<path fill-rule="evenodd" clip-rule="evenodd" d="M0.75 2C0.75 1.30964 1.30964 0.75 2 0.75H20C20.6904 0.75 21.25 1.30964 21.25 2C21.25 2.69036 20.6904 3.25 20 3.25H2C1.30964 3.25 0.75 2.69036 0.75 2Z" fill="white"/>
<path fill-rule="evenodd" clip-rule="evenodd" d="M0.75 16C0.75 15.3096 1.30964 14.75 2 14.75H8C8.69036 14.75 9.25 15.3096 9.25 16C9.25 16.6904 8.69036 17.25 8 17.25H2C1.30964 17.25 0.75 16.6904 0.75 16Z" fill="white"/>
</svg>
