<svg width="146" height="39" viewBox="0 0 146 39" fill="none" xmlns="http://www.w3.org/2000/svg">
<path d="M39.448 29.9999C39.288 29.9999 39.152 29.9439 39.04 29.8319C38.928 29.7199 38.872 29.5839 38.872 29.4239V13.7999C38.872 13.6239 38.92 13.4799 39.016 13.3679C39.128 13.2559 39.272 13.1999 39.448 13.1999H49.864C50.04 13.1999 50.184 13.2559 50.296 13.3679C50.408 13.4799 50.464 13.6239 50.464 13.7999V15.4799C50.464 15.6559 50.408 15.7999 50.296 15.9119C50.184 16.0079 50.04 16.0559 49.864 16.0559H42.16V20.6159H49.384C49.56 20.6159 49.704 20.6719 49.816 20.7839C49.928 20.8959 49.984 21.0399 49.984 21.2159V22.8959C49.984 23.0719 49.928 23.2159 49.816 23.3279C49.704 23.4239 49.56 23.4719 49.384 23.4719H42.16V29.4239C42.16 29.5999 42.104 29.7439 41.992 29.8559C41.88 29.9519 41.736 29.9999 41.56 29.9999H39.448Z" fill="#555555"/>
<path d="M57.4426 30.2399C55.9706 30.2399 54.8106 29.7599 53.9626 28.7999C53.1146 27.8239 52.6906 26.5039 52.6906 24.8399V18.0959C52.6906 17.9359 52.7466 17.7999 52.8586 17.6879C52.9706 17.5759 53.1066 17.5199 53.2666 17.5199H55.3786C55.5546 17.5199 55.6906 17.5759 55.7866 17.6879C55.8986 17.7839 55.9546 17.9199 55.9546 18.0959V24.6959C55.9546 26.6799 56.8266 27.6719 58.5706 27.6719C59.4026 27.6719 60.0586 27.4079 60.5386 26.8799C61.0346 26.3519 61.2826 25.6239 61.2826 24.6959V18.0959C61.2826 17.9359 61.3386 17.7999 61.4506 17.6879C61.5626 17.5759 61.6986 17.5199 61.8586 17.5199H63.9706C64.1466 17.5199 64.2826 17.5759 64.3786 17.6879C64.4906 17.7839 64.5466 17.9199 64.5466 18.0959V29.4239C64.5466 29.5839 64.4906 29.7199 64.3786 29.8319C64.2826 29.9439 64.1466 29.9999 63.9706 29.9999H62.0266C61.8666 29.9999 61.7306 29.9439 61.6186 29.8319C61.5066 29.7199 61.4506 29.5839 61.4506 29.4239V28.4399C60.5546 29.6399 59.2186 30.2399 57.4426 30.2399Z" fill="#555555"/>
<path d="M68.2928 29.9999C68.1328 29.9999 67.9968 29.9439 67.8848 29.8319C67.7728 29.7199 67.7168 29.5839 67.7168 29.4239V18.1199C67.7168 17.9599 67.7728 17.8239 67.8848 17.7119C67.9968 17.5839 68.1328 17.5199 68.2928 17.5199H70.2368C70.4128 17.5199 70.5568 17.5759 70.6688 17.6879C70.7808 17.7999 70.8368 17.9439 70.8368 18.1199V19.1039C71.2208 18.5919 71.7008 18.1999 72.2768 17.9279C72.8688 17.6559 73.5408 17.5199 74.2928 17.5199H75.2768C75.4528 17.5199 75.5888 17.5759 75.6848 17.6879C75.7968 17.7839 75.8528 17.9199 75.8528 18.0959V19.8239C75.8528 19.9839 75.7968 20.1199 75.6848 20.2319C75.5888 20.3439 75.4528 20.3999 75.2768 20.3999H73.4048C72.6528 20.3999 72.0608 20.6159 71.6288 21.0479C71.1968 21.4799 70.9808 22.0719 70.9808 22.8239V29.4239C70.9808 29.5839 70.9248 29.7199 70.8128 29.8319C70.7008 29.9439 70.5568 29.9999 70.3808 29.9999H68.2928Z" fill="#555555"/>
<path d="M78.3006 29.9999C78.1406 29.9999 78.0046 29.9439 77.8926 29.8319C77.7806 29.7199 77.7246 29.5839 77.7246 29.4239V18.0959C77.7246 17.9359 77.7806 17.7999 77.8926 17.6879C78.0046 17.5759 78.1406 17.5199 78.3006 17.5199H80.2686C80.4286 17.5199 80.5646 17.5759 80.6766 17.6879C80.7886 17.7999 80.8446 17.9359 80.8446 18.0959V19.0799C81.7886 17.8799 83.1246 17.2799 84.8526 17.2799C86.3246 17.2799 87.4926 17.7679 88.3566 18.7439C89.2206 19.7039 89.6526 21.0159 89.6526 22.6799V29.4239C89.6526 29.5839 89.5966 29.7199 89.4846 29.8319C89.3886 29.9439 89.2526 29.9999 89.0766 29.9999H86.9646C86.8046 29.9999 86.6686 29.9439 86.5566 29.8319C86.4446 29.7199 86.3886 29.5839 86.3886 29.4239V22.8239C86.3886 21.8799 86.1566 21.1519 85.6926 20.6399C85.2446 20.1119 84.5886 19.8479 83.7246 19.8479C82.8766 19.8479 82.2046 20.1119 81.7086 20.6399C81.2286 21.1679 80.9886 21.8959 80.9886 22.8239V29.4239C80.9886 29.5839 80.9326 29.7199 80.8206 29.8319C80.7246 29.9439 80.5886 29.9999 80.4126 29.9999H78.3006Z" fill="#555555"/>
<path d="M93.1812 15.4559C93.0212 15.4559 92.8852 15.3999 92.7732 15.2879C92.6612 15.1759 92.6052 15.0399 92.6052 14.8799V13.1519C92.6052 12.9919 92.6612 12.8559 92.7732 12.7439C92.8852 12.6319 93.0212 12.5759 93.1812 12.5759H95.3652C95.5252 12.5759 95.6612 12.6319 95.7732 12.7439C95.9012 12.8559 95.9652 12.9919 95.9652 13.1519V14.8799C95.9652 15.0399 95.9092 15.1759 95.7972 15.2879C95.6852 15.3999 95.5412 15.4559 95.3652 15.4559H93.1812ZM93.2772 29.9999C93.1172 29.9999 92.9812 29.9439 92.8692 29.8319C92.7572 29.7199 92.7012 29.5839 92.7012 29.4239V18.0959C92.7012 17.9359 92.7572 17.7999 92.8692 17.6879C92.9812 17.5759 93.1172 17.5199 93.2772 17.5199H95.2692C95.4452 17.5199 95.5812 17.5759 95.6772 17.6879C95.7892 17.7839 95.8452 17.9199 95.8452 18.0959V29.4239C95.8452 29.5839 95.7892 29.7199 95.6772 29.8319C95.5812 29.9439 95.4452 29.9999 95.2692 29.9999H93.2772Z" fill="#555555"/>
<path d="M99.6293 29.9999C99.4693 29.9999 99.3333 29.9439 99.2213 29.8319C99.1093 29.7199 99.0533 29.5839 99.0533 29.4239V13.5359C99.0533 13.3599 99.1093 13.2239 99.2213 13.1279C99.3333 13.0159 99.4693 12.9599 99.6293 12.9599H101.573C101.749 12.9599 101.885 13.0159 101.981 13.1279C102.093 13.2239 102.149 13.3599 102.149 13.5359V21.7439L106.181 17.9279C106.229 17.8959 106.309 17.8319 106.421 17.7359C106.517 17.6559 106.613 17.5999 106.709 17.5679C106.805 17.5359 106.925 17.5199 107.069 17.5199H109.301C109.461 17.5199 109.589 17.5679 109.685 17.6639C109.781 17.7599 109.829 17.8879 109.829 18.0479C109.829 18.1919 109.749 18.3359 109.589 18.4799L104.645 23.1119L110.189 29.0639C110.349 29.2239 110.429 29.3599 110.429 29.4719C110.429 29.6319 110.373 29.7599 110.261 29.8559C110.165 29.9519 110.045 29.9999 109.901 29.9999H107.621C107.397 29.9999 107.229 29.9759 107.117 29.9279C107.021 29.8639 106.893 29.7519 106.733 29.5919L102.149 24.7679V29.4239C102.149 29.5839 102.093 29.7199 101.981 29.8319C101.885 29.9439 101.749 29.9999 101.573 29.9999H99.6293Z" fill="#555555"/>
<path d="M112.705 15.4559C112.545 15.4559 112.409 15.3999 112.297 15.2879C112.185 15.1759 112.129 15.0399 112.129 14.8799V13.1519C112.129 12.9919 112.185 12.8559 112.297 12.7439C112.409 12.6319 112.545 12.5759 112.705 12.5759H114.889C115.049 12.5759 115.185 12.6319 115.297 12.7439C115.425 12.8559 115.489 12.9919 115.489 13.1519V14.8799C115.489 15.0399 115.433 15.1759 115.321 15.2879C115.209 15.3999 115.065 15.4559 114.889 15.4559H112.705ZM112.801 29.9999C112.641 29.9999 112.505 29.9439 112.393 29.8319C112.281 29.7199 112.225 29.5839 112.225 29.4239V18.0959C112.225 17.9359 112.281 17.7999 112.393 17.6879C112.505 17.5759 112.641 17.5199 112.801 17.5199H114.793C114.969 17.5199 115.105 17.5759 115.201 17.6879C115.313 17.7839 115.369 17.9199 115.369 18.0959V29.4239C115.369 29.5839 115.313 29.7199 115.201 29.8319C115.105 29.9439 114.969 29.9999 114.793 29.9999H112.801Z" fill="#555555"/>
<path d="M119.129 29.9999C118.969 29.9999 118.833 29.9439 118.721 29.8319C118.609 29.7199 118.553 29.5839 118.553 29.4239V18.0959C118.553 17.9359 118.609 17.7999 118.721 17.6879C118.833 17.5759 118.969 17.5199 119.129 17.5199H121.097C121.257 17.5199 121.393 17.5759 121.505 17.6879C121.617 17.7999 121.673 17.9359 121.673 18.0959V19.0799C122.617 17.8799 123.953 17.2799 125.681 17.2799C127.153 17.2799 128.321 17.7679 129.185 18.7439C130.049 19.7039 130.481 21.0159 130.481 22.6799V29.4239C130.481 29.5839 130.425 29.7199 130.313 29.8319C130.217 29.9439 130.081 29.9999 129.905 29.9999H127.793C127.633 29.9999 127.497 29.9439 127.385 29.8319C127.273 29.7199 127.217 29.5839 127.217 29.4239V22.8239C127.217 21.8799 126.985 21.1519 126.521 20.6399C126.073 20.1119 125.417 19.8479 124.553 19.8479C123.705 19.8479 123.033 20.1119 122.537 20.6399C122.057 21.1679 121.817 21.8959 121.817 22.8239V29.4239C121.817 29.5839 121.761 29.7199 121.649 29.8319C121.553 29.9439 121.417 29.9999 121.241 29.9999H119.129Z" fill="#555555"/>
<path d="M139.169 35.2799C137.745 35.2799 136.593 35.0399 135.713 34.5599C134.833 34.0959 134.209 33.5599 133.841 32.9519C133.473 32.3439 133.289 31.8239 133.289 31.3919C133.289 31.2479 133.345 31.1199 133.457 31.0079C133.585 30.8959 133.721 30.8399 133.865 30.8399H135.953C136.097 30.8399 136.217 30.8719 136.313 30.9359C136.425 31.0159 136.513 31.1519 136.577 31.3439C136.737 31.7759 136.993 32.1359 137.345 32.4239C137.713 32.7279 138.281 32.8799 139.049 32.8799C140.009 32.8799 140.713 32.6639 141.161 32.2319C141.625 31.7999 141.857 31.0559 141.857 29.9999V28.3679C140.977 29.4079 139.745 29.9279 138.161 29.9279C136.497 29.9279 135.241 29.4159 134.393 28.3919C133.561 27.3679 133.113 25.9919 133.049 24.2639L133.025 23.6159L133.049 22.9679C133.113 21.2719 133.569 19.9039 134.417 18.8639C135.265 17.8079 136.513 17.2799 138.161 17.2799C139.009 17.2799 139.753 17.4399 140.393 17.7599C141.033 18.0799 141.569 18.5199 142.001 19.0799V18.1199C142.001 17.9439 142.057 17.7999 142.169 17.6879C142.281 17.5759 142.417 17.5199 142.577 17.5199H144.521C144.681 17.5199 144.817 17.5839 144.929 17.7119C145.041 17.8239 145.097 17.9599 145.097 18.1199L145.121 29.6879C145.121 31.4639 144.625 32.8399 143.633 33.8159C142.641 34.7919 141.153 35.2799 139.169 35.2799ZM139.049 27.3839C139.961 27.3839 140.641 27.0959 141.089 26.5199C141.553 25.9439 141.809 25.2399 141.857 24.4079C141.873 24.2799 141.881 24.0159 141.881 23.6159C141.881 23.2319 141.873 22.9759 141.857 22.8479C141.809 21.9999 141.553 21.2879 141.089 20.7119C140.641 20.1359 139.961 19.8479 139.049 19.8479C137.321 19.8479 136.409 20.9119 136.313 23.0399L136.289 23.6159C136.289 24.7519 136.489 25.6639 136.889 26.3519C137.305 27.0399 138.025 27.3839 139.049 27.3839Z" fill="#555555"/>
<path d="M5.96954 6.94641C6.61481 6.94641 7.14111 6.42011 7.14111 5.77484C7.14111 5.12958 6.61481 4.60327 5.96954 4.60327C5.32428 4.60327 4.79797 5.12958 4.79797 5.77484C4.79797 6.42371 5.32428 6.94641 5.96954 6.94641Z" fill="#85B839"/>
<path d="M9.59605 24.7833V27.0327C11.4201 25.7098 13.5974 24.9852 15.8937 24.9852C18.1864 24.9852 20.3673 25.7098 22.1913 27.0327V24.7833C22.1913 22.8944 23.1394 21.2253 24.5777 20.2196C24.4552 17.8476 22.4941 15.9551 20.0933 15.9551H11.6941C9.29325 15.9551 7.33222 17.8476 7.20966 20.2196C8.64798 21.2253 9.59605 22.8944 9.59605 24.7833Z" fill="#85B839"/>
<path d="M22.8222 12.5305H8.91473V14.4267H22.8222V12.5305Z" fill="#85B839"/>
<path d="M22.1913 29.0262C20.4754 27.4185 18.2548 26.5281 15.8937 26.5281C13.5325 26.5281 11.3119 27.4185 9.59601 29.0262V31.081H22.1913V29.0262Z" fill="#85B839"/>
<path d="M25.551 6.94641C26.1963 6.94641 26.7226 6.42011 26.7226 5.77484C26.7226 5.12958 26.1963 4.60327 25.551 4.60327C24.9058 4.60327 24.3795 5.12958 24.3795 5.77484C24.3795 6.42371 24.9058 6.94641 25.551 6.94641Z" fill="#85B839"/>
<path d="M15.9117 3.77786C16.9535 3.77786 17.8006 2.93073 17.8006 1.88893C17.8006 0.847135 16.9535 0 15.9117 0C14.8699 0 14.0228 0.847135 14.0228 1.88893C14.0228 2.93073 14.8699 3.77786 15.9117 3.77786Z" fill="#85B839"/>
<path d="M27.7608 20.7566C25.5402 20.7566 23.7342 22.5626 23.7342 24.7832V32.6201H8.05319V24.7832C8.05319 22.5626 6.24717 20.7566 4.0266 20.7566C1.80602 20.7566 0 22.5626 0 24.7832C0 27.0038 1.80602 28.8098 4.0266 28.8098H4.79803V35.8789H26.9894V28.8098H27.7608C29.9814 28.8098 31.7874 27.0038 31.7874 24.7832C31.7874 22.5626 29.9814 20.7566 27.7608 20.7566ZM4.0266 26.0341C3.33447 26.0341 2.77572 25.4753 2.77572 24.7832C2.77572 24.0911 3.33807 23.5323 4.0266 23.5323C4.71872 23.5323 5.27747 24.0911 5.27747 24.7832C5.27747 25.4753 4.71872 26.0341 4.0266 26.0341ZM27.7608 26.0341C27.0687 26.0341 26.5099 25.4753 26.5099 24.7832C26.5099 24.0911 27.0687 23.5323 27.7608 23.5323C28.4529 23.5323 29.0117 24.0911 29.0117 24.7832C29.0117 25.4753 28.4529 26.0341 27.7608 26.0341Z" fill="#85B839"/>
<path d="M8.69839 10.9875H23.0348C23.8171 10.1404 24.383 9.14546 24.6966 8.0604C23.7702 8.54706 22.732 8.81742 21.665 8.81742C19.138 8.81742 16.9499 7.37549 15.8648 5.27026C14.7797 7.37188 12.588 8.81742 10.0646 8.81742C8.99398 8.81742 7.9594 8.55787 7.03656 8.07482C7.35739 9.15267 7.91974 10.144 8.69839 10.9875Z" fill="#85B839"/>
<path d="M9.59609 37.4219H8.05322V38.9647H9.59609V37.4219Z" fill="#85B839"/>
<path d="M23.7342 37.4219H22.1913V38.9647H23.7342V37.4219Z" fill="#85B839"/>
</svg>
