<svg style="display: none;" aria-hidden="true" xmlns="http://www.w3.org/2000/svg" xmlns:xlink="http://www.w3.org/1999/xlink"><symbol viewBox="0 0 20 21" id="add"><path d="M18.6798 16.1669H17.0611V14.5463C17.0611 14.3314 16.9758 14.1253 16.824 13.9733C16.6723 13.8213 16.4664 13.736 16.2517 13.736C16.0371 13.736 15.8312 13.8213 15.6794 13.9733C15.5277 14.1253 15.4424 14.3314 15.4424 14.5463V16.1669H13.8237C13.609 16.1669 13.4032 16.2522 13.2514 16.4042C13.0996 16.5562 13.0143 16.7623 13.0143 16.9772C13.0143 17.1921 13.0996 17.3982 13.2514 17.5501C13.4032 17.7021 13.609 17.7875 13.8237 17.7875H15.4424V19.4081C15.4424 19.623 15.5277 19.8291 15.6794 19.981C15.8312 20.133 16.0371 20.2184 16.2517 20.2184C16.4664 20.2184 16.6723 20.133 16.824 19.981C16.9758 19.8291 17.0611 19.623 17.0611 19.4081V17.7875H18.6798C18.8945 17.7875 19.1003 17.7021 19.2521 17.5501C19.4039 17.3982 19.4892 17.1921 19.4892 16.9772C19.4892 16.7623 19.4039 16.5562 19.2521 16.4042C19.1003 16.2522 18.8945 16.1669 18.6798 16.1669Z"/><path d="M17.0611 5.63293H14.6331C14.6331 4.3435 14.1214 3.10688 13.2107 2.19511C12.3 1.28334 11.0649 0.771118 9.77694 0.771118C8.48902 0.771118 7.25385 1.28334 6.34315 2.19511C5.43245 3.10688 4.92082 4.3435 4.92082 5.63293H2.49277C1.84881 5.63293 1.23122 5.88904 0.77587 6.34492C0.320521 6.80081 0.0647087 7.41912 0.0647087 8.06383L0.0647087 16.1668C0.0659938 17.241 0.492761 18.2708 1.2514 19.0303C2.01003 19.7898 3.0386 20.2171 4.11147 20.2184H11.3956C11.6103 20.2184 11.8162 20.133 11.9679 19.981C12.1197 19.8291 12.205 19.623 12.205 19.4081C12.205 19.1931 12.1197 18.987 11.9679 18.8351C11.8162 18.6831 11.6103 18.5978 11.3956 18.5978H4.11147C3.46751 18.5978 2.84992 18.3416 2.39458 17.8858C1.93923 17.4299 1.68341 16.8116 1.68341 16.1668V8.06383C1.68341 7.84893 1.76868 7.64282 1.92047 7.49086C2.07225 7.3389 2.27811 7.25353 2.49277 7.25353H4.92082V8.87413C4.92082 9.08904 5.00609 9.29514 5.15788 9.4471C5.30966 9.59906 5.51552 9.68443 5.73018 9.68443C5.94483 9.68443 6.15069 9.59906 6.30248 9.4471C6.45426 9.29514 6.53953 9.08904 6.53953 8.87413V7.25353H13.0143V8.87413C13.0143 9.08904 13.0996 9.29514 13.2514 9.4471C13.4032 9.59906 13.609 9.68443 13.8237 9.68443C14.0384 9.68443 14.2442 9.59906 14.396 9.4471C14.5478 9.29514 14.6331 9.08904 14.6331 8.87413V7.25353H17.0611C17.2758 7.25353 17.4816 7.3389 17.6334 7.49086C17.7852 7.64282 17.8705 7.84893 17.8705 8.06383V12.1153C17.8705 12.3302 17.9557 12.5363 18.1075 12.6883C18.2593 12.8403 18.4652 12.9256 18.6798 12.9256C18.8945 12.9256 19.1003 12.8403 19.2521 12.6883C19.4039 12.5363 19.4892 12.3302 19.4892 12.1153V8.06383C19.4892 7.41912 19.2334 6.80081 18.778 6.34492C18.3227 5.88904 17.7051 5.63293 17.0611 5.63293ZM6.53953 5.63293C6.53953 4.77331 6.88061 3.94889 7.48774 3.34105C8.09488 2.7332 8.91833 2.39172 9.77694 2.39172C10.6356 2.39172 11.459 2.7332 12.0661 3.34105C12.6733 3.94889 13.0143 4.77331 13.0143 5.63293H6.53953Z"/></symbol><symbol viewBox="0 0 24 38" id="arrow"><path clip-rule="evenodd" d="M23.092 34.2413C23.4822 33.8511 23.4826 33.2185 23.0928 32.8279L9.99979 19.7063C9.6103 19.316 9.6103 18.684 9.99979 18.2936L23.0928 5.17208C23.4826 4.78143 23.4822 4.14886 23.092 3.75864L20.0404 0.707077C19.6499 0.316553 19.0167 0.316554 18.6262 0.707078L1.04044 18.2929C0.649911 18.6834 0.649913 19.3166 1.04044 19.7071L18.6262 37.2929C19.0167 37.6834 19.6499 37.6834 20.0404 37.2929L23.092 34.2413Z"/></symbol><symbol viewBox="0 0 24 24" id="cart"><path d="M21 6H18C18 4.4087 17.3679 2.88258 16.2426 1.75736C15.1174 0.632141 13.5913 0 12 0C10.4087 0 8.88258 0.632141 7.75736 1.75736C6.63214 2.88258 6 4.4087 6 6H3C2.20435 6 1.44129 6.31607 0.87868 6.87868C0.31607 7.44129 0 8.20435 0 9L0 19C0.00158786 20.3256 0.528882 21.5964 1.46622 22.5338C2.40356 23.4711 3.67441 23.9984 5 24H19C20.3256 23.9984 21.5964 23.4711 22.5338 22.5338C23.4711 21.5964 23.9984 20.3256 24 19V9C24 8.20435 23.6839 7.44129 23.1213 6.87868C22.5587 6.31607 21.7956 6 21 6ZM12 2C13.0609 2 14.0783 2.42143 14.8284 3.17157C15.5786 3.92172 16 4.93913 16 6H8C8 4.93913 8.42143 3.92172 9.17157 3.17157C9.92172 2.42143 10.9391 2 12 2ZM22 19C22 19.7956 21.6839 20.5587 21.1213 21.1213C20.5587 21.6839 19.7956 22 19 22H5C4.20435 22 3.44129 21.6839 2.87868 21.1213C2.31607 20.5587 2 19.7956 2 19V9C2 8.73478 2.10536 8.48043 2.29289 8.29289C2.48043 8.10536 2.73478 8 3 8H6V10C6 10.2652 6.10536 10.5196 6.29289 10.7071C6.48043 10.8946 6.73478 11 7 11C7.26522 11 7.51957 10.8946 7.70711 10.7071C7.89464 10.5196 8 10.2652 8 10V8H16V10C16 10.2652 16.1054 10.5196 16.2929 10.7071C16.4804 10.8946 16.7348 11 17 11C17.2652 11 17.5196 10.8946 17.7071 10.7071C17.8946 10.5196 18 10.2652 18 10V8H21C21.2652 8 21.5196 8.10536 21.7071 8.29289C21.8946 8.48043 22 8.73478 22 9V19Z"/></symbol><symbol viewBox="0 0 18 18" id="compare"><path d="M2.86464 3.43722C3.62512 2.61688 4.50914 2.00026 5.4509 1.57618C8.58068 0.16691 12.3897 0.894162 14.7576 3.59891L16.3933 2.19766C16.4842 2.11981 16.63 2.19183 16.6387 2.31382L17.0455 7.80178C17.0505 7.89316 16.9662 7.96544 16.88 7.94357L11.5301 6.69599C11.4082 6.66528 11.3625 6.5131 11.4534 6.43525L13.0858 5.03678C11.5209 3.26501 9.10348 2.67947 6.97548 3.35998C6.17099 3.6158 5.41037 4.04792 4.75614 4.67029C3.85664 5.52531 3.29282 6.6218 3.06947 7.78119C2.95174 8.39985 2.34542 8.79545 1.73261 8.65068C1.14944 8.51429 0.785318 7.93697 0.900709 7.34847C1.17247 5.91684 1.82964 4.55465 2.86464 3.43722V3.43722ZM14.3205 10.4739C14.1032 11.6338 13.5361 12.7331 12.6338 13.5848C11.9764 14.21 11.213 14.6389 10.4145 14.8952C8.28651 15.5757 5.86585 14.9929 4.3042 13.2184L5.93662 11.8199C6.02749 11.742 5.97898 11.5866 5.85993 11.5591L0.507204 10.3083C0.417805 10.2892 0.333426 10.3615 0.34169 10.4501L0.745703 15.9348C0.75718 16.0601 0.900279 16.1288 0.99115 16.051L2.62681 14.6497C4.99149 17.3573 8.80329 18.0878 11.9335 16.6725C12.8753 16.2484 13.7565 15.6285 14.5198 14.8114C15.5576 13.6972 16.2147 12.335 16.4865 10.9034C16.5991 10.3117 16.2378 9.7376 15.6546 9.60121C15.0446 9.45969 14.4383 9.85529 14.3205 10.4739V10.4739Z"/></symbol><symbol viewBox="0 0 21 20" id="favorite"><path d="M10.777 19.1556L2.53614 10.9051C1.44321 9.81104 0.829154 8.32709 0.829063 6.77973C0.828972 5.23237 1.44285 3.74836 2.53565 2.65414C3.62845 1.55993 5.11066 0.94516 6.65621 0.945068C8.20175 0.944977 9.68404 1.55958 10.777 2.65366C11.8704 1.56081 13.3523 0.947017 14.8974 0.947017C16.4424 0.947017 17.9243 1.56081 19.0178 2.65366V2.65366C20.1089 3.74865 20.7216 5.2322 20.7216 6.7789C20.7216 8.3256 20.1089 9.80916 19.0178 10.9041L10.777 19.1556ZM6.65607 2.88994C5.88763 2.88991 5.13644 3.11805 4.49752 3.54548C3.8586 3.97292 3.36064 4.58046 3.06663 5.29126C2.77262 6.00206 2.69577 6.78419 2.84579 7.53873C2.99581 8.29326 3.36597 8.98631 3.90945 9.5302L10.777 16.4058L17.6445 9.5302C18.0389 9.14408 18.3467 8.67829 18.5474 8.16381C18.748 7.64933 18.8369 7.09797 18.8082 6.54641C18.7794 5.99486 18.6337 5.45576 18.3806 4.96499C18.1276 4.47422 17.773 4.04303 17.3405 3.70013C16.9081 3.35722 16.4076 3.11046 15.8725 2.97626C15.3374 2.84206 14.7798 2.8235 14.237 2.92182C13.6942 3.02014 13.1784 3.23308 12.7242 3.54647C12.2699 3.85986 11.8876 4.26652 11.6025 4.73937L10.777 6.07345L9.95143 4.73937C9.61064 4.17057 9.12725 3.70085 8.54921 3.37678C7.97116 3.0527 7.31854 2.88555 6.65607 2.89189V2.88994Z"/></symbol><symbol viewBox="0 0 10 18" id="fb"><path d="M2.96583 17.795V9.84283H0.863098V6.97965H2.96583V4.53413C2.96583 2.61242 4.20792 0.847656 7.06995 0.847656C8.22875 0.847656 9.08562 0.958746 9.08562 0.958746L9.0181 3.63246C9.0181 3.63246 8.14423 3.62396 7.19062 3.62396C6.15852 3.62396 5.99317 4.09959 5.99317 4.88901V6.97965H9.10015L8.96496 9.84283H5.99317V17.795H2.96583Z"/></symbol><symbol viewBox="0 0 17 17" id="inst"><path d="M8.07435 6.06059C6.59618 6.06059 5.38988 7.26689 5.38988 8.74507C5.38988 10.2232 6.59618 11.4295 8.07435 11.4295C9.55253 11.4295 10.7588 10.2232 10.7588 8.74507C10.7588 7.26689 9.55253 6.06059 8.07435 6.06059ZM16.1258 8.74507C16.1258 7.63342 16.1358 6.53184 16.0734 5.4222C16.011 4.13333 15.717 2.98945 14.7745 2.04697C13.83 1.10247 12.6881 0.810457 11.3992 0.748028C10.2876 0.685598 9.186 0.695667 8.07637 0.695667C6.96472 0.695667 5.86313 0.685598 4.7535 0.748028C3.46463 0.810457 2.32075 1.10448 1.37827 2.04697C0.433766 2.99147 0.141756 4.13333 0.0793265 5.4222C0.0168969 6.53385 0.0269662 7.63543 0.0269662 8.74507C0.0269662 9.85471 0.0168969 10.9583 0.0793265 12.0679C0.141756 13.3568 0.43578 14.5007 1.37827 15.4432C2.32277 16.3877 3.46463 16.6797 4.7535 16.7421C5.86515 16.8045 6.96673 16.7945 8.07637 16.7945C9.18802 16.7945 10.2896 16.8045 11.3992 16.7421C12.6881 16.6797 13.832 16.3857 14.7745 15.4432C15.719 14.4987 16.011 13.3568 16.0734 12.0679C16.1379 10.9583 16.1258 9.85672 16.1258 8.74507ZM8.07435 12.8755C5.78862 12.8755 3.94393 11.0308 3.94393 8.74507C3.94393 6.45934 5.78862 4.61464 8.07435 4.61464C10.3601 4.61464 12.2048 6.45934 12.2048 8.74507C12.2048 11.0308 10.3601 12.8755 8.07435 12.8755ZM12.3739 5.41011C11.8403 5.41011 11.4093 4.97915 11.4093 4.44548C11.4093 3.9118 11.8403 3.48084 12.3739 3.48084C12.9076 3.48084 13.3386 3.9118 13.3386 4.44548C13.3387 4.5722 13.3139 4.69771 13.2655 4.81482C13.2171 4.93192 13.146 5.03833 13.0564 5.12793C12.9668 5.21754 12.8604 5.28859 12.7433 5.33701C12.6262 5.38543 12.5007 5.41027 12.3739 5.41011Z"/></symbol><symbol viewBox="0 0 22 24" id="notify"><path clip-rule="evenodd" d="M2.76211 7.60729C2.76211 4.02114 6.08679.166748 11 .166748 15.9133.166748 19.2379 4.02114 19.2379 7.60729 19.2379 8.48315 19.3493 9.08828 19.4975 9.54758 19.6463 10.0088 19.8446 10.3643 20.0816 10.7611 20.1058 10.8016 20.1307 10.843 20.1563 10.8855 20.3737 11.2465 20.6353 11.681 20.8346 12.2026 21.0659 12.808 21.2084 13.5066 21.2084 14.4056 21.2084 14.4345 21.2071 14.4633 21.2046 14.4921 21.1234 15.4277 20.8441 16.2605 20.3046 16.9583 19.7679 17.6525 19.031 18.139 18.1574 18.4811 16.4585 19.1464 14.0511 19.335 11 19.335 7.95055 19.335 5.54314 19.1495 3.84422 18.4859 2.97031 18.1445 2.23288 17.6583 1.69579 16.9631 1.15607 16.2644.87683 15.43.795432 14.4921.792936 14.4633.791687 14.4345.791687 14.4056.791687 13.5066.934099 12.808 1.16545 12.2026 1.36479 11.681 1.62638 11.2465 1.84372 10.8855 1.8693 10.8431 1.89426 10.8016 1.91844 10.7611 2.15549 10.3643 2.35374 10.0088 2.50253 9.54758 2.65072 9.08828 2.76211 8.48315 2.76211 7.60729zM11 2.16675C7.14859 2.16675 4.76211 5.168 4.76211 7.60729 4.76211 8.65991 4.62719 9.47587 4.40592 10.1617 4.18526 10.8456 3.89091 11.3591 3.63536 11.7869 3.61044 11.8286 3.58616 11.8691 3.56249 11.9086 3.3364 12.2857 3.16644 12.5692 3.03368 12.9166 2.89861 13.27 2.79626 13.713 2.79184 14.3617 2.85147 14.9798 3.0261 15.4136 3.2785 15.7403 3.53928 16.0779 3.94154 16.3767 4.57195 16.623 5.88167 17.1346 7.94141 17.335 11 17.335 14.0581 17.335 16.1184 17.1318 17.4281 16.6188 18.0588 16.3718 18.4615 16.0725 18.7224 15.735 18.9747 15.4086 19.1489 14.9763 19.2082 14.3617 19.2038 13.7129 19.1014 13.27 18.9664 12.9166 18.8336 12.5692 18.6637 12.2857 18.4376 11.9086 18.4139 11.8691 18.3896 11.8286 18.3647 11.7869 18.1091 11.3591 17.8148 10.8456 17.5941 10.1617 17.3729 9.47587 17.2379 8.65991 17.2379 7.60729 17.2379 5.168 14.8515 2.16675 11 2.16675zM7.64438 20.8516C8.05519 20.4825 8.68745 20.5163 9.05658 20.9271 10.1474 22.141 11.7603 22.1305 12.8448 20.9263 13.2144 20.5159 13.8467 20.4828 14.2571 20.8524 14.6675 21.222 14.7005 21.8543 14.3309 22.2647 12.4598 24.3424 9.46205 24.3707 7.56892 22.2638 7.19979 21.853 7.23358 21.2208 7.64438 20.8516z"/></symbol><symbol viewBox="0 0 14 18" id="pint"><path d="M0.921172 6.92662C0.921172 6.19391 1.04925 5.5017 1.30165 4.85564C1.5428 4.22813 1.90108 3.6522 2.35739 3.15855C2.81278 2.67137 3.33389 2.25011 3.90568 1.90692C4.49233 1.55201 5.12745 1.28426 5.79113 1.11206C6.46282 0.935681 7.15446 0.846733 7.84892 0.847416C8.92161 0.847416 9.9199 1.07439 10.8457 1.52644C11.7594 1.97025 12.5371 2.65135 13.0975 3.49853C13.6757 4.36026 13.963 5.33501 13.963 6.42182C13.963 7.07353 13.8989 7.71112 13.768 8.33458C13.6395 8.95769 13.4352 9.56273 13.1596 10.1362C12.897 10.6913 12.5536 11.2045 12.1406 11.6591C11.7256 12.1064 11.2229 12.4635 10.6639 12.7082C10.057 12.9742 9.40053 13.1081 8.73796 13.1009C8.27743 13.1009 7.81784 12.9926 7.3639 12.7751C6.90996 12.5585 6.58411 12.2609 6.38822 11.8794C6.31947 12.1441 6.22529 12.5265 6.10003 13.0265C5.97948 13.5257 5.89849 13.8478 5.8627 13.9937C5.82503 14.1388 5.75534 14.3808 5.65363 14.7161C5.58465 14.9641 5.49616 15.2063 5.38899 15.4403L5.06501 16.0751C4.92491 16.3475 4.76828 16.611 4.59601 16.8643C4.42554 17.111 4.21458 17.4058 3.96313 17.7449L3.8228 17.7948L3.72957 17.6931C3.62879 16.626 3.577 15.9875 3.577 15.7765C3.577 15.1521 3.6514 14.4515 3.79832 13.6735C3.94241 12.8966 4.17032 11.9199 4.4764 10.7455C4.78248 9.57208 4.95765 8.88176 5.00474 8.67739C4.78907 8.23758 4.67982 7.66309 4.67982 6.95675C4.67982 6.39263 4.85594 5.86429 5.20911 5.36703C5.56321 4.87165 6.01056 4.62396 6.55303 4.62396C6.96835 4.62396 7.29044 4.76146 7.52118 5.0374C7.75286 5.3124 7.86587 5.65898 7.86587 6.08184C7.86587 6.53013 7.71707 7.17902 7.41758 8.02756C7.1181 8.87705 6.9693 9.51087 6.9693 9.93184C6.9693 10.3585 7.12186 10.7154 7.427 10.9951C7.72813 11.275 8.12636 11.4266 8.53736 11.418C8.91031 11.418 9.25594 11.3332 9.57709 11.1628C9.89322 10.9973 10.1669 10.761 10.3767 10.4724C10.8336 9.84548 11.1594 9.13277 11.3345 8.37696C11.4249 7.97953 11.4946 7.60187 11.5379 7.24682C11.584 6.88989 11.6038 6.55273 11.6038 6.23252C11.6038 5.05812 11.2309 4.14271 10.4897 3.48723C9.74473 2.83175 8.77469 2.50589 7.58145 2.50589C6.22435 2.50589 5.0895 2.94476 4.18068 3.82533C3.27092 4.70307 2.81321 5.81908 2.81321 7.17242C2.81321 7.47097 2.85842 7.75915 2.94412 8.03792C3.02794 8.31575 3.11929 8.53706 3.21818 8.70093C3.31612 8.86198 3.40842 9.01926 3.49224 9.16429C3.577 9.30933 3.62126 9.41292 3.62126 9.47508C3.62126 9.66532 3.57135 9.91301 3.47058 10.2191C3.36604 10.5252 3.24266 10.6777 3.09386 10.6777C3.07974 10.6777 3.02135 10.6674 2.91963 10.6457C2.56737 10.5405 2.24925 10.344 1.99763 10.0759C1.73057 9.79816 1.51982 9.47131 1.37699 9.11343C1.23458 8.75683 1.12365 8.38844 1.04549 8.01249C0.961039 7.65676 0.919306 7.29223 0.921172 6.92662Z"/></symbol><symbol viewBox="0 0 22 24" id="profile"><path d="M14.6182 11.1284C16.1539 10.0084 17.1539 8.19581 17.1539 6.15384C17.1539 2.76061 14.3933 0 11.0001 0C7.60685 0 4.84624 2.76061 4.84624 6.15384C4.84624 8.19581 5.84622 10.0084 7.38194 11.1284C3.56444 12.5892 0.846252 16.2905 0.846252 20.6154C0.846252 22.4817 2.36458 24 4.23086 24H17.7693C19.6356 24 21.1539 22.4817 21.1539 20.6154C21.1539 16.2905 18.4357 12.5892 14.6182 11.1284ZM6.69241 6.15384C6.69241 3.77859 8.62483 1.84617 11.0001 1.84617C13.3753 1.84617 15.3078 3.77859 15.3078 6.15384C15.3078 8.52909 13.3753 10.4616 11.0001 10.4616C8.62483 10.4616 6.69241 8.52909 6.69241 6.15384ZM17.7693 22.1538H4.23086C3.38257 22.1538 2.69242 21.4637 2.69242 20.6153C2.69242 16.0344 6.41918 12.3076 11.0001 12.3076C15.5811 12.3076 19.3078 16.0344 19.3078 20.6153C19.3078 21.4637 18.6176 22.1538 17.7693 22.1538Z"/></symbol><symbol viewBox="0 0 12 9" id="right-arrow"><path d="M11.3879 2.98231L8.87805 0.209356C8.75672 0.0753053 8.59217 0 8.4206 0C8.24903 0 8.08448 0.0753053 7.96314 0.209356C7.84184 0.343447 7.7737 0.52529 7.7737 0.714895C7.7737 0.9045 7.84184 1.08634 7.96314 1.22043L10.2634 3.76386H1.60212C1.43051 3.76386 1.26593 3.83919 1.14459 3.97329C1.02325 4.10739 0.955078 4.28926 0.955078 4.47891C0.955078 4.66855 1.02325 4.85042 1.14459 4.98452C1.26593 5.11862 1.43051 5.19395 1.60212 5.19395H10.3028L7.96314 7.77885C7.90298 7.84526 7.85526 7.92412 7.8227 8.01093C7.79014 8.09773 7.77338 8.19078 7.77338 8.28475C7.77338 8.37872 7.79014 8.47176 7.8227 8.55857C7.85526 8.64537 7.90298 8.72424 7.96314 8.79064C8.08448 8.9247 8.24903 9 8.4206 9C8.59217 9 8.75672 8.9247 8.87805 8.79064L11.3886 6.01697C11.7515 5.61381 11.9552 5.0682 11.9551 4.49949C11.955 3.93079 11.751 3.38529 11.3879 2.98231Z"/></symbol><symbol viewBox="0 0 16 16" id="search"><path d="M12.7 11.3C13.6 10.1 14.1 8.7 14.1 7.1C14.1 3.2 11 0 7.1 0C3.2 0 0 3.2 0 7.1C0 11 3.2 14.2 7.1 14.2C8.7 14.2 10.2 13.7 11.3 12.8L14.3 15.8C14.5 16 14.8 16.1 15 16.1C15.2 16.1 15.5 16 15.7 15.8C16.1 15.4 16.1 14.8 15.7 14.4L12.7 11.3ZM7.1 12.1C4.3 12.1 2 9.9 2 7.1C2 4.3 4.3 2 7.1 2C9.9 2 12.2 4.3 12.2 7.1C12.2 9.9 9.9 12.1 7.1 12.1Z"/></symbol><symbol viewBox="0 0 18 15" id="tw"><path d="M17.7737 2.17796C17.1505 2.4468 16.4723 2.64029 15.7737 2.71565C16.499 2.28475 17.0421 1.60402 17.3012 0.80115C16.6206 1.20602 15.875 1.48993 15.0975 1.64027C14.7725 1.29286 14.3795 1.0161 13.9429 0.827235C13.5063 0.638367 13.0355 0.541438 12.5598 0.542489C10.6351 0.542489 9.0872 2.1026 9.0872 4.0171C9.0872 4.28594 9.11979 4.55479 9.17275 4.81345C6.29082 4.66273 3.7205 3.28592 2.01171 1.17794C1.70035 1.70975 1.53719 2.31528 1.5392 2.93154C1.5392 4.13726 2.15225 5.20042 3.08709 5.82569C2.53617 5.80399 1.99815 5.65256 1.5168 5.38372V5.42649C1.5168 7.11491 2.7103 8.51413 4.30096 8.83593C4.0023 8.9135 3.69506 8.95319 3.38649 8.95405C3.16041 8.95405 2.94656 8.93165 2.73067 8.9011C3.17059 10.2779 4.45168 11.2779 5.97717 11.3105C4.78366 12.2454 3.28872 12.7953 1.66547 12.7953C1.37423 12.7953 1.10538 12.7851 0.826355 12.7525C2.3661 13.7403 4.19302 14.3106 6.16047 14.3106C12.5476 14.3106 16.0425 9.01923 16.0425 4.42647C16.0425 4.27576 16.0425 4.12504 16.0323 3.97433C16.7085 3.47941 17.3012 2.86636 17.7737 2.17796Z"/></symbol><symbol viewBox="0 0 20 16" id="view"><path d="M18.8992 5.69511C17.6439 3.64829 14.7885 0.214233 9.77697 0.214233C4.76546 0.214233 1.91006 3.64829 0.654754 5.69511C0.266692 6.32351 0.0611382 7.0477 0.0611382 7.7865C0.0611382 8.5253 0.266692 9.2495 0.654754 9.87789C1.91006 11.9247 4.76546 15.3588 9.77697 15.3588C14.7885 15.3588 17.6439 11.9247 18.8992 9.87789C19.2872 9.2495 19.4928 8.5253 19.4928 7.7865C19.4928 7.0477 19.2872 6.32351 18.8992 5.69511ZM17.5192 9.02951C16.4412 10.7846 14.001 13.7382 9.77697 13.7382C5.55296 13.7382 3.11276 10.7846 2.0347 9.02951C1.80414 8.65599 1.68203 8.22558 1.68203 7.7865C1.68203 7.34742 1.80414 6.91701 2.0347 6.5435C3.11276 4.78839 5.55296 1.83484 9.77697 1.83484C14.001 1.83484 16.4412 4.78514 17.5192 6.5435C17.7498 6.91701 17.8719 7.34742 17.8719 7.7865C17.8719 8.22558 17.7498 8.65599 17.5192 9.02951Z"/><path d="M9.77692 3.73499C8.97655 3.73499 8.19415 3.9726 7.52866 4.41779C6.86317 4.86297 6.34449 5.49573 6.0382 6.23605C5.73191 6.97636 5.65177 7.79099 5.80792 8.5769C5.96406 9.36282 6.34948 10.0847 6.91543 10.6513C7.48138 11.218 8.20244 11.6038 8.98744 11.7602C9.77243 11.9165 10.5861 11.8362 11.3255 11.5296C12.065 11.2229 12.697 10.7037 13.1417 10.0374C13.5863 9.37112 13.8237 8.58781 13.8237 7.78649C13.8224 6.71236 13.3956 5.68259 12.637 4.92307C11.8784 4.16354 10.8498 3.73627 9.77692 3.73499ZM9.77692 10.2174C9.2967 10.2174 8.82726 10.0748 8.42796 9.80772C8.02867 9.54061 7.71746 9.16095 7.53369 8.71676C7.34991 8.27257 7.30183 7.7838 7.39552 7.31225C7.4892 6.8407 7.72045 6.40755 8.06002 6.06758C8.39959 5.72762 8.83223 5.49609 9.30323 5.4023C9.77423 5.3085 10.2624 5.35664 10.7061 5.54063C11.1498 5.72462 11.529 6.03619 11.7958 6.43595C12.0626 6.83571 12.205 7.30571 12.205 7.78649C12.205 8.43121 11.9492 9.04952 11.4938 9.5054C11.0385 9.96129 10.4209 10.2174 9.77692 10.2174Z"/></symbol></svg>